<?xml version="1.0" encoding="utf-8"?>
<!-- Generator: Adobe Illustrator 27.6.1, SVG Export Plug-In . SVG Version: 6.00 Build 0)  -->
<svg version="1.1" id="Layer_1" xmlns="http://www.w3.org/2000/svg" xmlns:xlink="http://www.w3.org/1999/xlink" x="0px" y="0px"
	 viewBox="0 0 398.48 398.48" style="enable-background:new 0 0 398.48 398.48;" xml:space="preserve">
<g>
	<g>
		<path d="M200.29,282.3c-9.22,0.53-17.86-1.01-26.53-3.07c-8.94-2.12-17.49-5.24-25.49-9.52c-11.87-6.36-22.4-14.61-31.39-24.75
			c-4.4-4.97-8.36-10.26-11.85-15.86c-4.46-7.16-7.99-14.84-10.63-22.84c-2.74-8.3-4.25-16.86-4.86-25.65
			c-0.7-10.09,0.31-19.91,2.47-29.74c1.9-8.64,4.85-16.82,8.7-24.75c6.44-13.27,15.42-24.5,26.46-34.2
			c7.4-6.5,15.51-11.87,24.37-16.18c5.1-2.48,10.31-4.68,15.7-6.31c11.83-3.57,23.96-5.26,36.34-4.73
			c6.51,0.28,12.95,0.77,19.38,2.28c4.87,1.14,9.81,2.24,14.39,4.04c3.46,1.36,7.45,1.95,10.3,4.89c0.91,0.94,2.62,0.7,3.97,1.46
			c3.25,1.84,6.43,3.77,9.61,5.73c7.93,4.91,14.79,11.07,21.06,17.89c5.41,5.88,10.06,12.39,14.02,19.31
			c3.06,5.35,5.42,11.06,7.81,16.76c2.31,5.51,3.67,11.27,4.8,17c2.26,11.47,2.69,23.07,0.79,34.74
			c-0.98,6.01-2.34,11.91-4.05,17.71c-1.13,3.83-2.98,7.46-4.6,11.14c-4.77,10.88-11.58,20.41-19.61,29.07
			c-7.25,7.82-15.56,14.33-24.66,19.95c-6.68,4.13-13.68,7.55-21.07,9.98C224.17,280.44,212.36,283.27,200.29,282.3z M199.64,277.98
			c4.26-0.2,7.97-0.75,11.68-0.9c8.44-0.34,16.43-2.65,24.25-5.37c9.79-3.4,18.94-8.31,27.24-14.51
			c10.26-7.66,18.92-16.92,26.12-27.57c3.65-5.4,6.85-11.04,9.24-17.02c2.67-6.67,4.86-13.53,5.89-20.76
			c0.77-5.4,1.74-10.73,1.86-16.22c0.2-8.91-1.15-17.61-3.09-26.25c-0.66-2.95-1.54-5.86-2.5-8.73c-1.97-5.9-4.48-11.59-7.62-16.95
			c-3.04-5.19-6.46-10.11-10.21-14.84c-5.93-7.5-12.9-13.78-20.5-19.51c-4.84-3.65-9.98-6.84-15.39-9.38
			c-6.78-3.19-13.83-5.74-21.21-7.54c-8.51-2.08-17.07-2.88-25.73-3.18c-5.15-0.18-10.21,0.83-15.3,1.4
			c-8.15,0.91-15.9,3.21-23.49,6.13c-4.65,1.79-9.12,4.03-13.45,6.5c-4.97,2.84-9.88,5.84-14.17,9.61
			c-5.99,5.25-11.78,10.7-16.73,17.05c-5.55,7.12-10.06,14.82-13.73,22.99c-2.41,5.36-4.16,11-5.56,16.75
			c-1.8,7.41-2.77,14.89-3.11,22.49c-0.27,6.15,0.68,12.18,1.43,18.25c0.72,5.83,2.42,11.41,4.35,16.86
			c1.73,4.89,3.95,9.63,6.51,14.23c2.44,4.38,4.72,8.9,7.83,12.77c5.27,6.58,10.78,12.97,17.34,18.44
			c7.45,6.21,15.54,11.33,24.26,15.38c7.6,3.54,15.57,6.09,23.86,7.72C186.48,277.16,193.33,277.38,199.64,277.98z"/>
		<path d="M298.57,312.74c-2.07,0-4.14,0.01-6.21-0.01c-0.62-0.01-1.38,0.18-1.43-0.87c-0.04-0.75,0.32-0.97,0.99-1.1
			c1.5-0.29,1.92-1.46,1.92-2.78c0-5.63-0.04-11.26-0.09-16.89c-0.01-1.32-0.4-2.47-1.96-2.75c-0.66-0.12-1.04-0.49-0.98-1.19
			c0.05-0.67,0.57-0.77,1.07-0.73c4.62,0.35,9.25-0.94,13.84,0.04c1.88,0.4,3.9,0.78,5.08,2.61c2,3.1,1.95,4.68-0.57,7.77
			c-0.81,1-1,1.78,0.02,2.46c3.52,2.35,3.9,5.8,2.35,9.07c-1.5,3.17-4.92,4.14-8.33,4.36C302.39,312.84,300.47,312.74,298.57,312.74
			z M299.34,305.27c-0.01,0-0.01,0-0.02,0c0,0.83,0.09,1.67-0.02,2.48c-0.27,2.05,0.52,2.75,2.61,2.67
			c4.49-0.18,6.59-3.01,5.39-7.57c-0.53-2.04-3.37-3.33-6.34-3c-2.51,0.28-1.36,2.18-1.6,3.44
			C299.24,303.93,299.34,304.61,299.34,305.27z M299.33,292.91c0,4.63,1.58,5.89,5.17,3.94c2.16-1.18,2.06-3.28,1.48-5.39
			c-0.56-2.03-2.73-3.32-5.17-3.03c-2.55,0.3-1.07,2.3-1.46,3.5C299.25,292.22,299.33,292.58,299.33,292.91z"/>
		<path d="M198.74,299.39c3.98,1.82,3.75,5.5,4.9,8.47c0.46,1.2,0.48,2.7,2.37,2.64c0.7-0.02,1.43,0.26,1.26,1.14
			c-0.16,0.86-0.96,1.03-1.73,1.14c-5.17,0.76-7.43-0.82-8.2-6.04c-0.26-1.8-1.07-3.28-1.82-4.83c-0.59-1.21-1.77-1.57-2.93-1.41
			c-1.44,0.2-0.96,1.53-0.99,2.43c-0.05,1.57,0.09,3.15,0.06,4.73c-0.03,1.57-0.02,3.02,2.04,3.3c0.54,0.07,0.89,0.48,0.73,1.08
			c-0.12,0.44-0.46,0.67-0.93,0.67c-3.24,0-6.47,0-9.71,0.01c-0.59,0-0.92-0.24-0.92-0.88c0-0.57,0.19-0.9,0.8-1.02
			c1.91-0.38,2.11-1.89,2.12-3.44c0.02-5.39-0.03-10.79,0.01-16.18c0.01-1.54-0.53-2.57-2.09-2.87c-0.65-0.13-1.14-0.36-1.09-1.08
			c0.06-0.82,0.75-0.78,1.31-0.78c4.48,0,8.96-0.09,13.44,0.09c1.79,0.07,3.51,0.94,4.84,2.21
			C206.07,292.46,203.75,297.42,198.74,299.39z M191.32,293.54c0.02,0,0.04,0,0.06,0c0,0.82,0.09,1.66-0.02,2.47
			c-0.32,2.31,0.97,2.66,2.8,2.4c2.09-0.3,3.45-1.54,4.02-3.51c0.55-1.91,0.36-3.9-1.1-5.3c-1.29-1.24-3.16-1.61-4.86-1.04
			c-1.58,0.53-0.75,2.12-0.88,3.26C191.26,292.38,191.32,292.96,191.32,293.54z"/>
		<path d="M230.56,297.67c2.62-1.03,3.65-3.25,5.41-4.65c0.58-0.46,1.21-1.13,1.64-1.74c0.65-0.93,2.26-2.02,0.11-3.32
			c-0.93-0.56-0.67-1.48,0.62-1.51c2.4-0.06,4.81-0.06,7.21-0.09c0.52,0,1.05,0.06,1.15,0.69c0.1,0.65-0.16,1.09-0.89,1.24
			c-4.31,0.86-6.29,4.71-9.27,7.29c-0.78,0.67-0.66,1.64-0.06,2.48c2.45,3.45,4.89,6.91,7.35,10.35c0.83,1.16,1.9,2.04,3.33,2.37
			c0.64,0.15,1.06,0.39,0.96,1.15c-0.11,0.8-0.68,0.82-1.28,0.82c-1.74,0.01-3.48,0.02-5.22,0.01c-1.92-0.01-2.51-1.71-3.4-2.87
			c-2.03-2.65-3.87-5.45-5.81-8.18c-0.29-0.41-0.7-0.8-1.24-0.66c-0.58,0.15-0.63,0.73-0.64,1.22c0,2.15-0.02,4.31,0.05,6.46
			c0.04,1.13,0.74,1.79,1.82,2.07c0.57,0.15,1.2,0.26,1.03,1.08c-0.12,0.57-0.54,0.81-1.09,0.81c-3.07,0.01-6.13,0-9.2,0.01
			c-0.58,0-0.93-0.22-0.95-0.86c-0.02-0.59,0.22-0.91,0.79-1.05c1.68-0.42,1.72-1.69,1.71-3.12c-0.05-5.39-0.05-10.77,0.01-16.16
			c0.02-1.44-0.14-2.65-1.65-3.23c-0.57-0.22-1.11-0.48-1-1.21c0.13-0.85,0.87-0.62,1.39-0.63c2.73-0.03,5.47-0.04,8.21-0.02
			c0.51,0,1.25-0.23,1.36,0.65c0.08,0.57-0.19,0.98-0.73,1.13c-1.66,0.46-1.76,1.75-1.75,3.13
			C230.57,293.32,230.56,295.3,230.56,297.67z"/>
		<path d="M73.23,312.86c-7.66,0.76-12.86-6.57-13.01-12.24c-0.23-8.61,5.9-14.41,11.69-14.75c9.2-0.53,14.05,6.01,14.18,13.55
			C86.21,306.29,81.31,313.51,73.23,312.86z M79.66,299.87c0.3-2.98-0.17-5.88-1.68-8.72c-2.05-3.86-6.53-4.35-9.21-0.92
			c-1.98,2.54-2.05,5.56-2.18,8.44c-0.15,3.51,0,7.14,2.36,10.13c2.52,3.19,6.9,2.65,9.05-0.73
			C79.65,305.5,79.85,302.84,79.66,299.87z"/>
		<path d="M167.25,312.7c-2.98,0-5.97,0-8.95,0c-0.65,0-1.4,0.13-1.6-0.77c-0.22-0.97,0.56-1.03,1.18-1.22
			c1.62-0.48,2.07-1.61,2.05-3.22c-0.07-5.31-0.08-10.61,0.01-15.92c0.03-1.73-0.42-2.89-2.21-3.29c-0.68-0.15-1.38-0.4-1.21-1.26
			c0.2-0.95,1.08-0.56,1.65-0.57c5.55-0.05,11.11-0.01,16.66-0.09c1.49-0.02,2.12,0.51,2.16,1.96c0.05,1.49,0.19,2.97,0.28,4.46
			c0.02,0.42-0.04,0.85-0.57,0.94c-0.45,0.08-0.81-0.1-1.02-0.51c-0.15-0.29-0.25-0.61-0.41-0.9c-1.73-3.3-5.63-4.89-9.15-3.77
			c-0.97,0.31-1.25,0.96-1.23,1.89c0.02,1.49-0.1,2.99,0.04,4.47c0.11,1.14-0.71,2.9,1.5,3.02c1.82,0.11,3.78,0.45,4.41-2.03
			c0.14-0.55,0.09-1.28,0.88-1.26c0.86,0.02,1.01,0.73,1.01,1.43c-0.01,1.99-0.02,3.98-0.06,5.97c-0.01,0.56,0,1.22-0.78,1.34
			c-0.78,0.12-0.98-0.42-1.07-1.04c-0.39-2.77-2.47-2.09-4.18-1.95c-1.9,0.16-1.69,1.74-1.74,3.03c-0.06,1.66,0.03,3.32-0.08,4.97
			c-0.11,1.55,0.57,2.1,2.03,2.04c1.49-0.06,2.98,0,4.47-0.06c2.29-0.1,3.92-1.11,4.55-3.45c0.17-0.63,0.53-1.21,0.75-1.83
			c0.24-0.66,0.66-0.94,1.33-0.75c0.56,0.16,0.77,0.64,0.7,1.17c-0.29,2.13-0.6,4.26-0.93,6.38c-0.17,1.13-1.11,0.79-1.78,0.8
			C173.06,312.72,170.16,312.7,167.25,312.7z"/>
		<path d="M329.18,298.56c1.96-2.73,2.82-5.58,4.25-8.13c0.71-1.26-0.07-1.81-1.18-2.13c-0.63-0.18-1.03-0.58-0.92-1.27
			c0.14-0.87,0.88-0.58,1.4-0.59c1.99-0.07,3.98-0.1,5.97-0.1c0.62,0,1.41-0.16,1.47,0.86c0.04,0.69-0.27,1.03-0.96,1.19
			c-1.9,0.42-2.79,1.87-3.53,3.51c-1.2,2.69-2.82,5.17-4.11,7.83c-1.56,3.22-0.6,6.47-0.76,9.71c-0.05,1.04,1.2,0.98,1.91,1.29
			c0.55,0.23,1.11,0.28,1.01,1.1c-0.09,0.78-0.61,0.9-1.23,0.9c-3.15,0.02-6.3,0.04-9.45,0.05c-0.58,0-1.19,0.04-1.25-0.81
			c-0.05-0.65,0.04-1.07,0.83-1.2c1.98-0.34,2.09-1.78,2.31-3.49c0.63-4.72-1.84-8.37-3.96-12.08c-0.8-1.4-1.49-2.9-2.37-4.28
			c-0.72-1.12-1.46-1.93-2.56-2.44c-0.65-0.3-1.25-0.51-1.15-1.35c0.13-1.07,0.99-0.67,1.56-0.69c2.82-0.09,5.64-0.14,8.46-0.16
			c0.61-0.01,1.41-0.31,1.72,0.54c0.31,0.86-0.38,1.12-1,1.42c-0.93,0.46-0.97,1.12-0.63,2.06
			C326.03,293.14,327.14,295.92,329.18,298.56z"/>
		<path d="M134.09,286.37c1.49,0,2.99-0.01,4.48,0.01c0.47,0.01,1.05-0.08,1.24,0.55c0.18,0.6-0.18,0.93-0.7,1.1
			c-2.15,0.71-1.68,1.85-1.09,3.65c1.21,3.66,2.52,7.27,3.89,10.87c0.26,0.69,0.48,1.3,1.23,1.31c0.75,0.01,0.7-0.73,0.88-1.28
			c1.36-3.95,2.75-7.88,4.15-11.81c0.54-1.52-0.3-2.15-1.56-2.51c-0.62-0.18-1.09-0.44-1.04-1.17c0.06-0.95,0.84-0.62,1.33-0.63
			c2.07-0.05,4.15-0.04,6.23-0.03c0.45,0,1.06-0.17,1.2,0.52c0.1,0.49,0.09,1.07-0.49,1.25c-3.85,1.2-3.64,5.04-4.81,7.8
			c-2.14,5.04-3.73,10.33-5.49,15.53c-0.33,0.96-0.84,1.29-1.81,1.27c-0.96-0.02-1.72-0.09-2.13-1.19
			c-1.56-4.15-3.24-8.24-4.68-12.43c-1.07-3.09-2.41-6.1-3.55-9.18c-0.22-0.6-1.03-1.05-1.65-1.43c-0.63-0.38-1.53-0.54-1.25-1.53
			c0.29-1.03,1.24-0.58,1.91-0.61c1.24-0.07,2.49-0.02,3.73-0.02C134.09,286.4,134.09,286.38,134.09,286.37z"/>
		<path d="M276.62,312.74c-2.9,0-5.8,0.01-8.7-0.01c-0.52,0-1.24,0.23-1.38-0.64c-0.12-0.78,0.17-1.18,1.01-1.36
			c1.48-0.31,1.89-1.49,1.9-2.82c0.02-5.63,0.01-11.27,0.01-16.9c0-1.28-0.47-2.29-1.79-2.63c-0.75-0.19-1.24-0.48-1.13-1.31
			c0.12-0.9,0.87-0.6,1.37-0.61c2.9-0.07,5.8-0.13,8.7-0.13c0.67,0,1.64-0.29,1.81,0.79c0.18,1.09-0.69,1.16-1.44,1.22
			c-1.45,0.12-1.7,1.1-1.7,2.27c-0.04,5.96-0.06,11.93-0.1,17.89c-0.01,1.28,0.42,2.06,1.88,1.91c1.72-0.17,3.48,0.28,5.16-0.37
			c2.13-0.82,2.42-2.95,3.29-4.68c0.3-0.6,0.27-1.6,1.37-1.43c1.24,0.2,0.86,1.2,0.93,1.97c0.01,0.08,0,0.17,0,0.25
			c-0.41,6.63-0.41,6.62-6.95,6.62c-1.41,0-2.82,0-4.23,0C276.62,312.75,276.62,312.75,276.62,312.74z"/>
		<path d="M100.06,312.74c-2.82,0-5.64,0.01-8.46-0.01c-0.72,0-1.6,0.18-1.72-0.91c-0.11-0.96,0.7-0.95,1.31-1.15
			c1.22-0.4,1.58-1.36,1.58-2.53c-0.01-5.81-0.03-11.62-0.04-17.43c0-1.36-0.63-2.18-1.99-2.39c-0.67-0.11-1.04-0.48-0.99-1.19
			c0.06-0.93,0.8-0.68,1.31-0.68c3.07-0.05,6.14-0.07,9.21-0.07c0.55,0,1.23-0.1,1.29,0.77c0.05,0.74-0.37,1.07-1.02,1.14
			c-1.63,0.19-1.95,1.31-1.95,2.66c0,5.73,0.06,11.45,0,17.18c-0.02,1.76,0.74,2.26,2.39,2.29c4.95,0.09,5.68-0.32,7.59-4.79
			c0.31-0.72,0.38-1.83,1.54-1.58c1.3,0.28,0.8,1.44,0.81,2.28c0,0.57-0.22,1.13-0.3,1.71c-0.65,4.72-0.65,4.72-5.3,4.72
			c-1.74,0-3.49,0-5.23,0C100.06,312.76,100.06,312.75,100.06,312.74z"/>
		<path d="M254.05,299.61c0-2.73-0.07-5.47,0.03-8.2c0.06-1.61-0.35-2.74-2.03-3.18c-0.62-0.16-1.43-0.31-1.25-1.22
			c0.15-0.79,0.9-0.57,1.44-0.58c3.06-0.07,6.13-0.13,9.19-0.16c0.6-0.01,1.42-0.23,1.51,0.8c0.08,0.88-0.5,1.11-1.23,1.22
			c-1.72,0.26-2.25,1.35-2.23,3c0.05,5.47,0.07,10.94-0.02,16.4c-0.03,1.73,0.66,2.67,2.25,3.02c0.67,0.15,1.35,0.17,1.2,1.15
			c-0.14,0.93-0.82,0.89-1.49,0.89c-2.98-0.01-5.96-0.01-8.95-0.03c-0.65,0-1.39,0.11-1.59-0.79c-0.21-0.97,0.54-1.04,1.18-1.21
			c1.67-0.42,2.09-1.53,2.01-3.17C253.96,304.91,254.05,302.26,254.05,299.61z"/>
		<path d="M119.86,312.71c-1.49,0-2.98,0.01-4.47,0c-0.56,0-1.22,0.09-1.24-0.79c-0.01-0.54,0.1-1.02,0.74-1.08
			c2.36-0.23,2.22-1.89,2.2-3.62c-0.05-5.3-0.06-10.61,0-15.91c0.02-1.55-0.08-2.82-1.98-3.07c-0.62-0.08-1.11-0.41-1-1.15
			c0.13-0.87,0.86-0.62,1.38-0.64c2.9-0.09,5.8-0.16,8.7-0.18c0.66,0,1.61-0.32,1.77,0.82c0.15,1.03-0.52,1.18-1.36,1.3
			c-1.52,0.22-2,1.34-2,2.71c0,5.55,0.03,11.1,0.05,16.65c0,1.6,0.59,2.76,2.32,2.99c0.7,0.09,1.03,0.36,1.02,1.09
			c-0.02,1.04-0.76,0.9-1.4,0.91c-1.57,0.02-3.15,0.01-4.72,0.01C119.86,312.73,119.86,312.72,119.86,312.71z"/>
		<path d="M247.08,328.76c0-0.58-0.13-1.19,0.03-1.73c0.35-1.22-1.03-3,0.83-3.66c2.66-0.94,6.43,0.17,7.33,2
			c0.57,1.15,0.79,2.49-0.46,3.34c-1.88,1.28-1.31,2.45-0.11,3.74c0.41,0.44,1.24,1.02,0.63,1.57c-0.76,0.67-1.24-0.18-1.68-0.81
			c-0.42-0.6-1.16-1.04-1.41-1.68c-0.58-1.46-1.75-1.42-2.88-1.24c-1.4,0.22-0.62,1.44-0.82,2.21c-0.15,0.56,0.42,1.54-0.56,1.62
			c-1.2,0.1-0.81-1-0.84-1.64c-0.06-1.24-0.02-2.48-0.02-3.72C247.1,328.76,247.09,328.76,247.08,328.76z M250.75,328.79
			c1.72,0.01,3.42,0.25,3.3-2.08c-0.13-2.46-2.19-1.62-3.52-1.91c-1.67-0.36-1.98,0.54-2.05,2.08
			C248.38,329.01,249.57,328.91,250.75,328.79z"/>
		<path d="M195.23,328.79c0,1.49,0.01,2.98-0.01,4.47c0,0.42-0.09,0.83-0.63,0.88c-0.72,0.08-0.78-0.42-0.8-0.94
			c-0.02-0.41-0.08-0.84,0-1.24c0.43-2.35-0.67-2.8-2.83-2.87c-2.39-0.08-3,0.79-2.77,2.95c0.08,0.73,0.55,2.08-0.92,2.04
			c-1.24-0.03-0.82-1.23-0.84-1.96c-0.05-2.4-0.02-4.8,0-7.19c0.01-0.7-0.24-1.62,0.97-1.58c1.04,0.04,0.73,0.86,0.82,1.47
			c0.15,1.01-0.63,2.36,0.5,2.96c1.33,0.7,2.98,0.39,4.38,0.12c1.24-0.24,0.46-1.7,0.67-2.6c0.15-0.65-0.45-1.78,0.59-1.85
			c1.35-0.1,0.77,1.18,0.83,1.87C195.31,326.47,195.23,327.63,195.23,328.79z"/>
		<path d="M226.31,334.22c-3.11,0-5.23-2.09-5.26-5.19c-0.03-2.99,2.5-5.52,5.27-5.78c2.83-0.26,5.49,2.5,5.48,5.67
			C231.78,331.99,229.47,334.22,226.31,334.22z M222.58,328.9c-0.04,2.39,1.43,4.03,3.68,4.11c2.21,0.08,4.03-1.74,4.09-4.07
			c0.06-2.45-1.67-4.26-4.03-4.22C224,324.75,222.62,326.29,222.58,328.9z"/>
		<path d="M239.28,334.26c-2.32,0.59-3.79-1.37-4.44-3.29c-0.76-2.22-0.62-4.76,1.6-6.53c1.81-1.45,3.78-1.49,5.82-0.67
			c0.54,0.22,1.48,0.41,1.1,1.31c-0.31,0.75-1.03,0.23-1.53,0.11c-4.48-1.09-6.06,0.25-5.78,4.74c0.1,1.51,0.88,2.22,2.12,2.69
			c1.4,0.53,2.75,0.41,4.04-0.37c0.66-0.39,0.41-1.02,0.4-1.57c-0.01-0.76-0.53-0.86-1.17-0.97c-0.61-0.11-1.82,0.36-1.66-0.77
			c0.13-0.95,1.26-0.47,1.92-0.43c0.95,0.06,2.3-0.45,2.32,1.37c0.02,1.79,0.15,3.6-2.07,4.22
			C241.24,334.29,240.46,334.2,239.28,334.26z"/>
		<path d="M203.53,334.22c-3.1,0-5.2-2.2-5.16-5.39c0.05-3.29,2.32-5.54,5.54-5.51c2.77,0.03,5.25,2.6,5.25,5.45
			C209.17,331.92,206.79,334.22,203.53,334.22z M207.72,328.93c0-2.44-1.88-4.27-4.33-4.21c-2.03,0.05-3.72,1.83-3.65,4.06
			c0.08,2.63,1.6,4.12,3.8,4.26C205.91,333.19,207.73,331.34,207.72,328.93z"/>
		<path d="M119.48,323.44c0,3.34,0,6.69,0,10.03c0,0.37-0.16,0.62-0.56,0.67c-0.61,0.08-0.87-0.35-1.16-0.76
			c-1.41-1.98-2.83-3.95-4.22-5.94c-0.25-0.36-0.49-0.76-0.92-0.72c-0.73,0.07-0.52,0.71-0.53,1.16c-0.04,1.74-0.03,3.48-0.07,5.22
			c-0.01,0.47,0.04,1.09-0.71,1.01c-0.52-0.05-0.59-0.52-0.59-0.94c-0.02-2.9-0.02-5.8-0.02-8.71c0-0.4-0.09-0.86,0.42-1.05
			c0.71-0.26,1.07,0.24,1.42,0.7c1.48,1.92,2.99,3.82,4.42,5.78c0.29,0.4,0.39,0.99,1.01,0.83c0.65-0.17,0.39-0.81,0.44-1.26
			c0.23-2-0.31-4.06,0.33-6.03C118.97,323.43,119.22,323.44,119.48,323.44z"/>
		<path d="M149.72,334.21c-2.97-0.01-5.13-2.27-5.12-5.35c0.01-2.93,2.56-5.33,5.3-5.62c2.59-0.28,5.15,2.52,5.16,5.66
			C155.07,332.02,152.85,334.22,149.72,334.21z M153.67,328.67c-0.04-2.14-1.77-3.93-3.82-3.96c-2.21-0.03-4.07,2.06-3.97,4.45
			c0.08,1.94,2.2,3.99,4.07,3.94C152.06,333.04,153.71,331.07,153.67,328.67z"/>
		<path d="M163.85,329.13c1.22-0.19,2.81-1.45,3.4,0.56c0.77,2.59-0.41,4.18-2.75,4.53c-4.8,0.72-7.05-2.53-6.6-6.48
			c0.25-2.21,1.94-3.26,3.52-4.13c1.44-0.79,3.21-0.51,4.75,0.33c0.48,0.26,0.81,0.67,0.54,1.21c-0.23,0.46-0.67,0.27-1.08,0.15
			c-0.78-0.23-1.58-0.52-2.38-0.56c-2.5-0.11-3.83,1.32-3.87,4.05c-0.04,2.52,1.45,4.32,3.73,4.21c1.14-0.06,2.56-0.09,2.89-1.71
			C166.37,329.48,164.76,329.77,163.85,329.13z"/>
		<path d="M271,328.6c0-0.58-0.08-1.17,0.02-1.74c0.19-1.16-0.68-3.02,0.57-3.35c1.72-0.46,3.72-0.65,5.54,0.29
			c1.82,0.93,2.12,2.58,1.71,4.21c-0.4,1.61-1.86,2.58-3.5,2.61c-1.94,0.04-3.52,0.07-2.94,2.71c0.09,0.42-0.13,0.83-0.66,0.82
			c-0.52-0.01-0.68-0.41-0.68-0.85c-0.01-1.57-0.01-3.15-0.01-4.72C271.03,328.6,271.01,328.6,271,328.6z M274.11,329.08
			c1.45-0.19,3.39,0.13,3.31-2.21c-0.07-2.1-1.87-1.88-3.3-2.08c-1.5-0.21-1.88,0.55-1.74,1.87
			C272.5,327.8,271.9,329.41,274.11,329.08z"/>
		<path d="M175.84,328.85c0-0.58-0.12-1.19,0.02-1.73c0.32-1.25-0.93-2.99,0.74-3.74c2.04-0.93,5.52,0.17,6.64,1.77
			c1.55,2.23,0.12,5.24-2.82,5.47c-1.95,0.15-3.67,0.01-3.2,2.76c0.08,0.45-0.25,0.77-0.74,0.78c-0.59,0.02-0.62-0.43-0.62-0.83
			c-0.01-1.49,0-2.98,0-4.47C175.85,328.85,175.85,328.85,175.84,328.85z M177.32,326.94c-0.18,1.35-0.03,2.46,1.68,2.22
			c1.54-0.21,3.67,0.13,3.72-2.19c0.05-1.97-1.75-2.03-3.24-2.17C177.86,324.65,176.9,325.15,177.32,326.94z"/>
		<path d="M127.42,331.39c-1.55-0.09-3.08-0.35-3.4,1.67c-0.09,0.6-0.17,1.31-0.99,1c-0.68-0.26-0.57-1.01-0.27-1.5
			c0.69-1.13,1.09-2.37,1.6-3.57c0.67-1.57,1.62-3.01,2.15-4.67c0.45-1.42,1.31-1.58,1.99-0.19c1.49,3.02,2.85,6.1,4.27,9.16
			c0.16,0.35,0.16,0.7-0.2,0.82c-0.53,0.18-0.98,0.01-1.16-0.59C130.75,331.43,129.21,331.03,127.42,331.39z M127.76,330.29
			c0.68-0.18,2.05,0.36,1.66-1.01c-0.31-1.09-0.74-2.81-1.95-2.86c-1.21-0.05-1.31,1.64-1.5,2.69
			C125.68,330.7,126.98,330.17,127.76,330.29z"/>
		<path d="M257.41,333.94c2.04-3.06,2.85-6.35,4.34-9.35c0.28-0.56,0.33-1.34,1.27-1.26c0.87,0.08,1.01,0.83,1.23,1.39
			c1.04,2.74,2.19,5.42,3.57,8c0.19,0.36,0.95,1.01,0.05,1.37c-0.63,0.25-1.2,0.1-1.39-0.86c-0.58-2.86-2.89-1.68-4.63-1.88
			c-1.42-0.17-2.23,0.35-2.36,1.81C259.38,334.51,258.53,334.23,257.41,333.94z M262.82,330.33c0.57-0.35,1.89,0.57,1.75-0.96
			c-0.11-1.22-0.37-2.94-1.66-2.96c-1.22-0.02-1.53,1.82-1.82,2.9C260.72,330.7,262.14,330.07,262.82,330.33z"/>
		<path d="M108.06,333.5c-0.02,0.34-0.09,0.64-0.51,0.69c-0.61,0.07-0.76-0.31-1.02-0.79c-1.01-1.82-4.28-2.86-6.09-1.96
			c-0.76,0.38-1.25,1.08-1.35,1.96c-0.07,0.66-0.43,0.9-0.99,0.66c-0.44-0.19-0.44-0.69-0.27-1.08c1.34-2.97,2.68-5.94,4.06-8.89
			c0.47-1.01,1.2-1.24,1.76-0.1c1.51,3.06,2.93,6.17,4.38,9.26C108.05,333.33,108.05,333.42,108.06,333.5z M102.91,330.29
			c0.5-0.29,1.85,0.44,1.64-0.96c-0.17-1.13-0.62-2.79-1.84-2.81c-1.15-0.02-1.42,1.63-1.59,2.71
			C100.89,330.62,102.06,330.18,102.91,330.29z"/>
		<path d="M282.12,334.38c0-3.84,0-7.38,0-11.15c1.36,0.75,0.86,1.85,0.85,2.69c-0.02,1.55,0.5,2.22,2.16,2.24
			c3.52,0.04,3.52,0.11,3.83-3.4c0.05-0.53-0.19-1.29,0.66-1.36c0.95-0.08,0.72,0.73,0.72,1.24c0.03,2.81,0.02,5.63,0.01,8.44
			c0,0.47,0.09,1.08-0.65,1.08c-0.68,0-0.71-0.55-0.73-1.06c-0.01-0.33-0.05-0.67,0-0.99c0.37-2.24-0.53-2.92-2.81-2.96
			c-2.49-0.04-3.55,0.62-3.14,3.18C283.12,332.91,283.31,333.66,282.12,334.38z"/>
		<path d="M302.76,323.55c-1.27,1.86-2.35,3.69-3.69,5.32c-0.99,1.21-0.61,2.49-0.75,3.77c-0.06,0.56,0.41,1.51-0.7,1.48
			c-0.81-0.02-0.77-0.83-0.69-1.34c0.55-3.23-1.58-5.29-3.18-7.61c-0.31-0.44-1.25-1.24-0.29-1.77c0.78-0.43,1.16,0.22,1.44,1.1
			c0.38,1.21,1.69,1.89,2.15,3.19c0.27,0.76,0.85,0.86,1.37-0.09c0.66-1.21,1.89-2.04,2.32-3.44
			C300.99,323.42,301.56,323.15,302.76,323.55z"/>
		<path d="M135.56,328.75c0-1.33-0.02-2.66,0.01-3.98c0.01-0.55-0.13-1.32,0.7-1.34c0.91-0.02,0.64,0.8,0.65,1.31
			c0.03,2.07,0.08,4.15-0.01,6.22c-0.06,1.39,0.37,1.98,1.82,1.84c1.07-0.1,2.16,0,3.23,0.03c0.45,0.02,0.82,0.24,0.86,0.72
			c0.04,0.57-0.41,0.64-0.83,0.64c-1.74,0.01-3.49-0.01-5.23,0.02c-1.07,0.02-1.19-0.66-1.18-1.48
			C135.58,331.4,135.57,330.07,135.56,328.75z"/>
		<path d="M214.52,329.57c0-0.99-0.05-1.98,0.01-2.97c0.08-1.23-0.33-1.86-1.66-1.82c-0.65,0.02-1.75,0.31-1.62-0.87
			c0.12-1.11,1.18-0.57,1.81-0.6c1.56-0.08,3.13-0.04,4.7,0c0.53,0.01,1.27-0.17,1.27,0.74c0,0.68-0.58,0.79-1.06,0.71
			c-2.25-0.36-2.37,1-2.3,2.66c0.07,1.73,0.03,3.46,0,5.19c-0.01,0.52,0.29,1.39-0.46,1.43c-1.01,0.04-0.62-0.94-0.66-1.51
			c-0.06-0.99-0.02-1.98-0.02-2.97C214.54,329.57,214.53,329.57,214.52,329.57z"/>
		<path d="M199.99,231.54c-22.99,0-45.98-0.1-68.97,0.09c-4.34,0.04-7.12-2.41-7.06-6.94c0.23-17.1,0.07-34.2,0.1-51.29
			c0-1.74-0.01-3.22-2.34-3.1c-0.23,0.01-0.56-0.06-0.69-0.21c-1.36-1.74-0.9-3.8-0.83-5.74c0.05-1.24,0.6-2.63,2.05-2.77
			c1.81-0.18,1.81-1.23,1.8-2.57c-0.04-3.73-0.02-7.47-0.01-11.21c0.01-3.26,2.48-5.77,5.69-5.79c2.24-0.02,4.48-0.06,6.72,0
			c1.78,0.05,2.74-0.55,2.98-2.48c0.4-3.21,1.32-3.92,4.47-3.94c2.57-0.01,5.15-0.03,7.72,0.02c3.21,0.07,4.51,1.24,4.67,4.49
			c0.08,1.59,0.78,1.93,2.17,1.93c9.71-0.03,19.42-0.02,29.13-0.02c1.15,0,2.13-0.02,2.18-1.63c0.05-1.51-0.77-1.86-1.98-1.92
			c-0.25-0.01-0.5-0.05-0.75-0.02c-5.1,0.45-6.31,0.07-6.22-6.63c0.06-4.98,0-9.96,0.01-14.94c0.01-3.93,1.31-5.24,5.14-5.24
			c10.38-0.01,20.75-0.02,31.13,0c3.1,0,4.87,1.76,4.88,4.91c0.01,5.64-0.01,11.28-0.08,16.92c-0.05,3.92-1.19,5-4.99,4.98
			c-0.83-0.01-1.66,0.04-2.49-0.03c-1.55-0.12-1.67,0.8-1.75,2.03c-0.09,1.49,0.7,1.58,1.83,1.57c6.47-0.03,12.95-0.03,19.42,0
			c1.06,0,1.65-0.19,1.75-1.45c0.16-1.89,1.43-2.59,3.26-2.56c3.15,0.05,6.31,0.04,9.46-0.01c1.77-0.03,2.98,0.74,3.21,2.44
			c0.27,1.94,1.58,1.47,2.76,1.57c1.21,0.1,1.67-0.27,1.85-1.59c0.33-2.38,2.26-2.49,4.19-2.44c1.77,0.04,3.68-0.08,4.02,2.27
			c0.21,1.42,0.99,1.77,2.21,1.75c1.16-0.02,2.32-0.01,3.49-0.01c3.52,0.01,5.65,2.14,5.73,5.94c0.08,3.73,0.06,7.47,0.05,11.2
			c0,1.17,0.11,1.99,1.58,2.3c2.86,0.6,2.57,3,2.56,5.15c-0.02,1.91-0.13,3.75-2.75,3.83c-1.66,0.05-1.38,1.36-1.38,2.4
			c-0.01,13.78,0.01,27.56,0.01,41.33c0,3.73-0.01,7.47-0.03,11.2c-0.02,4.39-1.81,6.2-6.17,6.2
			C246.47,231.53,223.23,231.53,199.99,231.54z M199.97,144.21c0,0.01,0,0.01,0,0.02c-10.45,0-20.91-0.01-31.36,0
			c-12.61,0.01-25.22,0.03-37.83,0.06c-3.37,0.01-4.39,0.81-4.41,3.64c-0.04,6.39,0.03,12.77-0.03,19.16
			c-0.02,2.22,0.8,3.02,3.09,3.01c11.94-0.04,23.89,0.03,35.83,0.15c1.82,0.02,2.91-0.63,3.75-2.18c1.37-2.52,3.46-4.57,5.56-6.36
			c5.61-4.76,11.9-8.21,19.37-9.49c14.71-2.53,27.26,1.63,36.92,12.67c3.59,4.1,6.8,5.6,12.01,5.35c9.35-0.45,18.73-0.2,28.1-0.18
			c1.9,0,2.57-0.63,2.53-2.61c-0.12-6.47-0.04-12.94-0.04-19.42c0-2.93-0.82-3.81-3.82-3.81
			C246.43,144.2,223.2,144.21,199.97,144.21z M201.13,229.19c20.4,0.8,37.33-16.99,37.58-36.71c0.28-21.78-16.22-38.5-37.02-38.63
			c-21.35-0.13-37.72,16.79-37.93,37.8C163.57,211.68,180.8,230.1,201.13,229.19z M201.18,116.94c0-0.01,0-0.02,0-0.04
			c-4.07,0-8.13,0.07-12.2-0.03c-2.07-0.05-2.96,0.52-2.83,2.8c0.21,3.72,0.17,7.47,0.05,11.2c-0.07,1.97,0.77,2.71,2.57,2.72
			c8.3,0.05,16.59,0.13,24.89,0.11c1.93-0.01,3.2-0.83,3.07-3.22c-0.19-3.48-0.13-6.97-0.02-10.45c0.08-2.28-0.89-3.14-3.09-3.11
			C209.48,116.98,205.33,116.94,201.18,116.94z M156.17,229.17c0,0.04,0,0.08,0,0.11c8.88,0,17.76,0.01,26.64-0.03
			c0.72,0,1.94,0.48,2.06-0.66c0.09-0.86-0.98-1.21-1.78-1.48c-1.56-0.53-2.86-1.52-4.18-2.46c-1.37-0.98-2.76-1.65-4.56-1.64
			c-15.25,0.08-30.51,0.13-45.76,0.08c-2.33-0.01-2.76,1.25-2.48,2.95c0.32,1.9,1.28,3.21,3.66,3.18
			C138.58,229.11,147.38,229.17,156.17,229.17z M216.84,228.75c0.95,0.7,1.64,0.6,2.28,0.6c17.01-0.04,34.01-0.09,51.02-0.15
			c3-0.01,3.21-0.45,3.4-3.53c0.18-2.79-1.53-2.59-3.33-2.6c-11.2-0.02-22.39-0.07-33.59-0.1c-5.8-0.02-11.78-0.82-16.48,3.88
			c-0.21,0.21-0.65,0.16-0.92,0.33C218.47,227.63,217.76,228.14,216.84,228.75z M151.39,207.21c-0.04,3.88,1.73,6.42,4.68,7.22
			c2.27,0.62,5.01-0.81,6.72-3.49c1.22-1.93,1.1-4.64-1.19-6.16c-3.22-2.13-3.35-5.13-3.55-8.3c-0.08-1.24-0.1-2.48-0.11-3.72
			c-0.01-1.1-0.23-2.05-1.58-2.03c-1.26,0.02-2.03,0.69-1.98,2.02c0.04,1.11-0.33,2.12-0.71,3.12
			C152.23,199.69,152.52,203.84,151.39,207.21z"/>
		<path d="M254.14,150.98c2.4,0,4.81,0.03,7.21-0.01c2.14-0.04,3.28,0.81,3.14,3.09c-0.08,1.32-0.12,2.66,0,3.98
			c0.17,1.96-0.87,2.78-2.6,2.8c-5.14,0.06-10.28,0.08-15.42,0c-1.89-0.03-2.9-0.97-2.92-3.12c-0.04-6.76-0.11-6.76,6.6-6.78
			c1.33-0.01,2.65,0,3.98,0C254.14,150.95,254.14,150.96,254.14,150.98z M257.49,156.22c-0.43,1.65,0.84,2.12,2.26,2.22
			c1.54,0.1,2.61-0.83,2.68-2.33c0.07-1.55-1.17-2.53-2.51-2.57C258.61,153.51,257.28,154.16,257.49,156.22z"/>
		<path d="M136.49,154.15c0.01-2.39,2.43-5.02,4.64-5.04c2.5-0.02,4.8,2.53,4.76,5.29c-0.04,2.66-2.13,4.87-4.67,4.93
			C138.73,159.4,136.48,156.94,136.49,154.15z M141.25,156.26c1.42,0.07,2.17-0.56,2.22-2.01c0.05-1.38-0.77-1.95-1.97-2.02
			c-1.29-0.07-2.34,0.42-2.38,1.87C139.08,155.45,139.84,156.23,141.25,156.26z"/>
		<path d="M236.1,191.58c0.69,19.7-16.29,35.6-34.91,35.31c-19.76-0.31-34.82-15.4-34.97-35.14c-0.15-19.7,14.61-33.86,31.95-35.33
			C220.51,154.52,237.32,173.3,236.1,191.58z M234.62,191.56c0.7-17.94-15.03-35.38-36.04-33.64
			c-16.41,1.35-30.83,13.91-30.61,33.99c0.21,19.43,13.95,33.17,33.6,33.45C219.74,225.62,234.88,210.26,234.62,191.56z"/>
		<path d="M201.24,220.2c-15.79,0.71-28.8-13.49-28.8-28.26c0-15.77,12.06-29.22,28.7-29.25c16.43-0.03,28.37,12.56,28.89,27.97
			C230.6,207.65,216.71,220.79,201.24,220.2z M201.4,164.84c-13.89-0.6-26.9,11.45-26.54,27.36c0.34,14.9,11.44,26.14,26.29,26.17
			c14.3,0.03,26.07-10.19,26.51-26.08C228.1,176.65,215.95,164.63,201.4,164.84z"/>
		<path d="M201.37,215.24c-13.61,0.33-23.57-10.77-23.83-22.81c-0.31-14.13,9.53-24.48,23.53-24.65
			c13.29-0.16,23.32,9.18,23.89,23.27C225.45,203.52,215.53,215.6,201.37,215.24z M218.68,180.96c0.02-3.17-1.87-5.14-4.97-5.17
			c-3.1-0.04-5.2,1.99-5.16,4.99c0.03,2.93,2.04,5.05,4.84,5.1C216.49,185.93,218.67,183.91,218.68,180.96z M207.4,188.23
			c0.74-0.28,2.15,0.32,2.09-1.07c-0.06-1.22-1.04-2.09-2.32-2.22c-1.12-0.12-1.71,0.74-1.76,1.68
			C205.34,187.84,206.19,188.33,207.4,188.23z"/>
	</g>
</g>
</svg>
